<?xml version="1.0" encoding="UTF-8" standalone="no"?>
<!-- Created with Inkscape (http://www.inkscape.org/) -->

<svg
   width="21.068756mm"
   height="10.943811mm"
   viewBox="0 0 21.068756 10.943811"
   version="1.1"
   id="svg1"
   inkscape:version="1.3.2 (091e20ef0f, 2023-11-25, custom)"
   sodipodi:docname="gpsplit.svg"
   inkscape:export-filename="gpsplit.png"
   inkscape:export-xdpi="1085.0189"
   inkscape:export-ydpi="1085.0189"
   xmlns:inkscape="http://www.inkscape.org/namespaces/inkscape"
   xmlns:sodipodi="http://sodipodi.sourceforge.net/DTD/sodipodi-0.dtd"
   xmlns:xlink="http://www.w3.org/1999/xlink"
   xmlns="http://www.w3.org/2000/svg"
   xmlns:svg="http://www.w3.org/2000/svg">
  <sodipodi:namedview
     id="namedview1"
     pagecolor="#ffffff"
     bordercolor="#000000"
     borderopacity="0.25"
     inkscape:showpageshadow="2"
     inkscape:pageopacity="0.0"
     inkscape:pagecheckerboard="0"
     inkscape:deskcolor="#d1d1d1"
     inkscape:document-units="mm"
     inkscape:zoom="4"
     inkscape:cx="-33.125"
     inkscape:cy="33"
     inkscape:window-width="1920"
     inkscape:window-height="1020"
     inkscape:window-x="1920"
     inkscape:window-y="0"
     inkscape:window-maximized="1"
     inkscape:current-layer="layer1" />
  <defs
     id="defs1">
    <linearGradient
       id="linearGradient27"
       inkscape:collect="always">
      <stop
         style="stop-color:#c95ee2;stop-opacity:1;"
         offset="0"
         id="stop27" />
      <stop
         style="stop-color:#e2dd15;stop-opacity:1;"
         offset="1"
         id="stop26" />
    </linearGradient>
    <linearGradient
       id="linearGradient18"
       inkscape:collect="always">
      <stop
         style="stop-color:#5c5c5c;stop-opacity:1;"
         offset="0"
         id="stop17" />
      <stop
         style="stop-color:#444444;stop-opacity:1;"
         offset="1"
         id="stop18" />
    </linearGradient>
    <linearGradient
       id="linearGradient1"
       inkscape:collect="always">
      <stop
         style="stop-color:#15dbe2;stop-opacity:1;"
         offset="0"
         id="stop1" />
      <stop
         style="stop-color:#1588e2;stop-opacity:1;"
         offset="1"
         id="stop2" />
    </linearGradient>
    <rect
       x="124.10085"
       y="221.0215"
       width="362.76678"
       height="236.54762"
       id="rect1" />
    <linearGradient
       inkscape:collect="always"
       xlink:href="#linearGradient1"
       id="linearGradient2"
       x1="261.65674"
       y1="237.11613"
       x2="350.57245"
       y2="237.11613"
       gradientUnits="userSpaceOnUse"
       spreadMethod="pad" />
    <linearGradient
       inkscape:collect="always"
       xlink:href="#linearGradient18"
       id="linearGradient4"
       x1="271.15823"
       y1="233.83734"
       x2="346.85052"
       y2="233.83734"
       gradientUnits="userSpaceOnUse" />
    <linearGradient
       inkscape:collect="always"
       xlink:href="#linearGradient27"
       id="linearGradient26"
       x1="71.583893"
       y1="65.842667"
       x2="92.652649"
       y2="65.842667"
       gradientUnits="userSpaceOnUse" />
  </defs>
  <g
     inkscape:label="Layer 1"
     inkscape:groupmode="layer"
     id="layer1"
     transform="translate(-71.583893,-58.057117)">
    <path
       style="fill:none;fill-opacity:1;fill-rule:evenodd;stroke:#e39752;stroke-width:0.2;stroke-linecap:butt;stroke-linejoin:miter;stroke-miterlimit:1.5;stroke-dasharray:0.05, 0.05;stroke-dashoffset:0;stroke-opacity:1;paint-order:markers stroke fill"
       d="m 80.812785,66.428602 1.806249,0.576449 1.41342,-1.263748"
       id="path30"
       sodipodi:nodetypes="ccc"
       inkscape:export-filename="gpsplit.png"
       inkscape:export-xdpi="1200"
       inkscape:export-ydpi="1200" />
    <path
       style="fill:none;fill-opacity:1;fill-rule:evenodd;stroke:#6a6a6a;stroke-width:0.2;stroke-linecap:square;stroke-linejoin:miter;stroke-miterlimit:1.5;stroke-dasharray:none;stroke-opacity:1;paint-order:markers stroke fill"
       d="m 72.104813,65.681809 3.361153,-0.500764 3.009283,0.500764 2.337536,0.746793 m 3.219669,-0.687299 1.190149,-1.061021 3.085891,1.001527 h 3.823234"
       id="path9"
       sodipodi:nodetypes="cccccccc" />
    <text
       xml:space="preserve"
       transform="matrix(0.26458333,0,0,0.26458333,0.36086049,0)"
       id="text1"
       style="font-style:normal;font-variant:normal;font-weight:bold;font-stretch:normal;font-size:29.3333px;line-height:0.8;font-family:Caveat;-inkscape-font-specification:'Caveat, Bold';font-variant-ligatures:normal;font-variant-caps:normal;font-variant-numeric:normal;font-variant-east-asian:normal;text-align:center;letter-spacing:0px;white-space:pre;shape-inside:url(#rect1);display:inline;fill:url(#linearGradient2);fill-rule:evenodd;stroke:url(#linearGradient4);stroke-width:1.88976;stroke-linecap:square;stroke-linejoin:round;stroke-miterlimit:4;stroke-dasharray:none;paint-order:markers stroke fill"><tspan
         x="269.05246"
         y="240.43734"
         id="tspan2">GPSplit</tspan></text>
    <path
       id="circle9"
       style="fill:url(#linearGradient26);fill-rule:evenodd;stroke:#6a6a6a;stroke-width:0.2;stroke-linecap:square;stroke-miterlimit:1.5;stroke-opacity:1"
       d="m 88.729414,65.681808 c 0,0.232467 -0.188452,0.420919 -0.420919,0.42092 -0.232468,0 -0.42092,-0.188452 -0.42092,-0.42092 10e-7,-0.232467 0.188453,-0.420919 0.42092,-0.420919 0.232467,10e-7 0.420918,0.188452 0.420919,0.420919 z m -3.085891,-1.001525 c 0,0.232468 -0.188452,0.42092 -0.42092,0.42092 -0.232468,0 -0.42092,-0.188452 -0.42092,-0.42092 0,-0.232468 0.188452,-0.42092 0.42092,-0.42092 0.232468,0 0.42092,0.188452 0.42092,0.42092 z m -2.603569,2.324768 c 0,0.232468 -0.188452,0.42092 -0.42092,0.42092 -0.232468,0 -0.42092,-0.188452 -0.42092,-0.42092 0,-0.232468 0.188452,-0.42092 0.42092,-0.42092 0.232468,0 0.42092,0.188452 0.42092,0.42092 z M 78.89617,65.681808 c 0,0.232468 -0.188452,0.42092 -0.42092,0.42092 -0.232468,0 -0.42092,-0.188452 -0.42092,-0.42092 1e-6,-0.232467 0.188453,-0.420919 0.42092,-0.420919 0.232467,0 0.420919,0.188452 0.42092,0.420919 z m 13.656479,0 c 0,0.232468 -0.188452,0.42092 -0.42092,0.42092 -0.232468,0 -0.42092,-0.188452 -0.42092,-0.42092 10e-7,-0.232467 0.188453,-0.420919 0.42092,-0.420919 0.232467,0 0.420919,0.188452 0.42092,0.420919 z M 75.886885,65.181046 c -1e-6,0.232467 -0.188453,0.420919 -0.42092,0.420919 -0.232467,0 -0.420919,-0.188452 -0.42092,-0.420919 0,-0.232468 0.188452,-0.42092 0.42092,-0.42092 0.232468,0 0.42092,0.188452 0.42092,0.42092 z m -3.361152,0.500762 c 0,0.232468 -0.188452,0.42092 -0.42092,0.42092 -0.232468,0 -0.42092,-0.188452 -0.42092,-0.42092 10e-7,-0.232467 0.188453,-0.420919 0.42092,-0.420919 0.232467,0 0.420919,0.188452 0.42092,0.420919 z"
       sodipodi:nodetypes="sssssssssssssssssssssssssssssssssss" />
    <path
       style="fill:none;fill-opacity:1;fill-rule:evenodd;stroke:#e39752;stroke-width:0.2;stroke-linecap:square;stroke-linejoin:miter;stroke-miterlimit:1.5;stroke-dasharray:none;stroke-opacity:1;paint-order:normal"
       id="path27"
       transform="rotate(-105)"
       sodipodi:type="arc"
       sodipodi:cx="-86.105286"
       sodipodi:cy="62.461674"
       sodipodi:rx="1.896"
       sodipodi:ry="1.896"
       sodipodi:start="1.1030481"
       sodipodi:end="5.2831116"
       sodipodi:arc-type="arc"
       d="m -85.250422,64.154016 a 1.896,1.896 0 0 1 -2.36974,-0.552182 1.896,1.896 0 0 1 0.125224,-2.429999 1.896,1.896 0 0 1 2.413948,-0.305666"
       sodipodi:open="true" />
  </g>
</svg>
